<?xml version="1.0" encoding="UTF-8"?>
<svg xmlns="http://www.w3.org/2000/svg" version="1.1" xmlns:xlink="http://www.w3.org/1999/xlink" viewBox="0 0 841.89 841.89">
  <defs>
    <style>
      .cls-1 {
        fill: #309ea8;
      }

      .cls-2 {
        fill: #231f20;
      }

      .cls-3 {
        fill: none;
      }

      .cls-4 {
        clip-path: url(#clippath);
      }
    </style>
    <clipPath id="clippath">
      <rect class="cls-3" x="112.06" y="105.31" width="618.33" height="630.83"/>
    </clipPath>
  </defs>
  <!-- Generator: Adobe Illustrator 28.7.1, SVG Export Plug-In . SVG Version: 1.2.0 Build 142)  -->
  <g>
    <g id="Layer_1">
      <g class="cls-4">
        <path class="cls-2" d="M138.16,303.79c-36.11,82.71-35.24,178.84,5.6,260.54,38.52,77.08,107.52,135.13,189.99,159.79,12.69,3.8,31.9,7.51,58.45,11.32,14.4,2.04,68.03-.65,86.89-4.38,54.86-10.85,104.12-35.09,146.33-71.96,29.66-25.88,52.67-55.57,71.17-91.64,42.09-82.26,43.66-175.07,11.33-255.48l-44.51,12.52c40.85,96.12,20.81,209.04-51.97,284.68-41.72,43.36-90.06,68.2-152.94,78.55-14.83,2.44-51.96,3.23-66.3,1.44-40.82-5.12-81.84-19.98-115.15-41.7-89.92-58.62-134.79-165.67-114.42-272.94,3.51-18.42,9.91-37.18,18.34-55.4l-42.81-15.33Z"/>
        <path class="cls-2" d="M247.29,542.46c-76.39-80.32-50.33-234.76,61.46-265.35,39.15-6.25,66.96-2.33,101.69,10.26v55.34c-21.91-18.19-55.9-28.89-80.19-25.12-103.63,18.65-104.85,193.1-9.7,217.13,39.73,6.49,83.22-3.48,99.32-38.51,8.85-20.13,9.81-32.59,9.81-127.55v-89.45h59.4c67.3,0,81.18,1.64,100.63,11.93,30.91,16.31,46.73,48.24,38.96,78.63-3.43,13.43-11.85,29.25-19.19,36.18-2.72,2.52-4.91,5.43-4.91,6.44,0,1.07,3.82,5.97,8.49,10.96,17.83,19.06,25.07,41.28,23.88,73.13-.66,17.63-1.51,21.55-6.78,32.54-16.56,34.48-42.7,46.07-104.07,46.1h-27.55c10.58-12.13,13.66-29.49.61-43.81l33.03-.73c27.31-.59,34.14-1.32,39.69-4.25,23.27-12.18,31.04-37.23,19.16-61.93-10.97-22.85-47.06-51.14-79.68-62.45-7.44-2.58-6.86-2.7,18.25-3.64,22.42-.85,27.01-1.61,33.65-5.4,25.28-14.39,25.53-48.87.53-65.13l-8.22-5.35h-78.8l-1.12,77.81c-.61,42.81-1.75,80.02-2.6,82.64-25.71,102.1-156.12,128.33-225.76,59.55v.03Z"/>
        <path class="cls-1" d="M500.44,553.82c0,11.77-9.56,21.32-21.33,21.32s-21.29-9.55-21.29-21.32,9.55-21.3,21.29-21.3,21.33,9.55,21.33,21.3"/>
        <path class="cls-2" d="M632.94,264.35l20.02,30.74,8.55-5.57-13.89-21.33,34.22-22.29-6.13-9.41-42.78,27.86ZM620.51,217.97l16.69-6.44-7.38,16.3-9.31-9.86ZM591.16,218.02l7.86,8.32,11.53-4.47,14.82,15.69-5.12,11.25,8.06,8.54,22.35-51.21-7.11-7.53-52.39,19.4ZM565.81,189.19l6.4-9.23,10.66,7.4c4.73,3.28,5.62,6.48,3.67,9.29l-.08.12c-2.16,3.12-5.62,2.85-9.69.02l-10.96-7.61ZM577.54,172.29l6.15-8.87,9.11,6.32c3.89,2.7,4.97,5.76,3.06,8.51l-.08.12c-2.16,3.11-5.65,2.65-9.73-.18l-8.51-5.9ZM551.21,191.04l19.95,13.84c9.47,6.57,18.36,7.06,23.68-.61l.08-.12c3.91-5.63,2.87-10.53-.7-15.75,4.16.4,8.51-.49,11.79-5.22l.08-.12c2-2.88,2.66-5.88,2.07-9.12-.73-4.06-3.59-8-8.39-11.32l-19.47-13.51-29.1,41.94ZM521.52,167.46c-8.39-3.37-11.63-12.53-8.37-20.65l.05-.14c3.26-8.12,11.74-12.41,20.14-9.04,8.39,3.37,11.63,12.53,8.37,20.65l-.05.14c-3.26,8.12-11.74,12.41-20.14,9.04M517.52,177.01c14.62,5.87,29.67-.89,35.08-14.36l.05-.14c5.41-13.47-.7-28.57-15.32-34.44-14.62-5.87-29.67.89-35.08,14.36l-.05.14c-5.41,13.47.7,28.57,15.32,34.44M453.12,158.87l36.01,7.01,1.95-10.02-24.98-4.86,7.8-40.09-11.02-2.14-9.75,50.11ZM420.36,158.11c9.33.04,16.57-3.58,21.83-8.01l.08-22.17-22.17-.08-.04,9.7,11.3.04-.03,7.29c-2.85,2.03-6.5,3.04-10.58,3.02-9.04-.03-15.43-6.91-15.4-16.25v-.14c.03-8.68,6.55-15.87,14.72-15.84,5.91.02,9.4,1.93,13.33,5.23l7.11-8.51c-5.31-4.54-10.84-7.04-20.03-7.07-15.46-.06-26.81,11.79-26.86,26.3v.15c-.06,15.09,10.84,26.29,26.74,26.35M325.17,151.69l1.55-17.82,11.4,13.78-12.95,4.04ZM312.32,178.08l10.93-3.41,1.05-12.32,20.61-6.43,7.86,9.54,11.21-3.49-36.19-42.57-9.89,3.08-5.58,55.59ZM279.8,185.98c-7.8,4.57-17.03,1.52-21.45-6.04l-.07-.13c-4.42-7.55-2.62-16.89,5.19-21.46s17.03-1.52,21.45,6.04l.07.13c1.29,2.2,2.06,4.54,2.34,6.74l-11.07-2.31-2.12,10.53,10.75,1.91c-1.22,1.81-2.95,3.33-5.09,4.58M305.32,174.59l-6.78-1.19c.32-5.09-.78-10.28-3.5-14.93l-.07-.13c-7.33-12.52-23.02-16.95-36.61-8.99-13.59,7.96-17.47,24-10.14,36.52l.07.13c7.33,12.52,23.02,16.95,36.61,8.99,4.91-2.87,8.57-6.87,10.88-11.44l7.39,1.51,2.15-10.47ZM225.36,227.11l-7.51-8.35,9.65-8.68c4.28-3.86,7.59-3.99,9.89-1.44l.1.11c2.54,2.82,1.49,6.12-2.2,9.44l-9.92,8.93ZM211.61,211.83l-7.22-8.02,8.24-7.42c3.52-3.17,6.74-3.52,8.99-1.02l.1.11c2.54,2.82,1.28,6.11-2.41,9.43l-7.7,6.93ZM223.82,241.75l18.05-16.25c8.56-7.71,11.08-16.25,4.83-23.19l-.1-.11c-4.59-5.1-9.59-5.2-15.49-2.93,1.34-3.96,1.47-8.39-2.38-12.67l-.1-.11c-2.34-2.6-5.11-3.93-8.41-4.11-4.12-.22-8.61,1.67-12.94,5.57l-17.61,15.85,34.15,37.94ZM206.46,265.85c5.81-7.95,6.43-14.72,4.99-22.27l-10.04,1.51c.58,5.39.35,9.65-3.09,14.36-5.16,7.06-14.62,7.65-21.69,2.48l-.12-.09c-7.06-5.16-9.17-14.39-4.1-21.33,3.01-4.12,7.15-6.07,12.35-7.14l-2.43-10.63c-6.57,1.07-12.56,3.83-18.24,11.6-9.25,12.66-6.11,28.5,5.6,37.07l.12.09c11.83,8.65,27.78,6.49,36.64-5.64"/>
      </g>
    </g>
  </g>
</svg>